<svg width="186" height="233" viewBox="0 0 186 233" fill="none" xmlns="http://www.w3.org/2000/svg" styles="color: currentColor">
<path d="M169 80.4V76C169 55.8435 160.993 36.5126 146.74 22.2599C132.487 8.00712 113.156 0 93 0C72.8435 0 53.5127 8.00712 39.2599 22.2599C25.0071 36.5126 17 55.8435 17 76V80.4C12.1394 81.387 7.81889 84.1448 4.87725 88.1381C1.93561 92.1314 0.582706 97.0753 1.08116 102.01C1.57961 106.945 3.89387 111.518 7.57467 114.843C11.2555 118.167 16.0402 120.005 21 120H26.68L89.53 230C89.8803 230.611 90.3856 231.118 90.9949 231.471C91.6042 231.824 92.2958 232.01 93 232.01C93.7042 232.01 94.3958 231.824 95.0051 231.471C95.6144 231.118 96.1197 230.611 96.47 230L159.32 120H165C169.96 120.005 174.745 118.167 178.425 114.843C182.106 111.518 184.42 106.945 184.919 102.01C185.417 97.0753 184.064 92.1314 181.123 88.1381C178.181 84.1448 173.861 81.387 169 80.4ZM93 219.94L35.89 120H64.39L107.25 195L93 219.94ZM102.11 120L126.11 162L111.86 186.94L73.61 120H102.11ZM130.71 153.94L111.32 120H150.11L130.71 153.94ZM165 112H21C17.8174 112 14.7652 110.736 12.5147 108.485C10.2643 106.235 9 103.183 9 100C9 96.8174 10.2643 93.7652 12.5147 91.5147C14.7652 89.2643 17.8174 88 21 88C22.0609 88 23.0783 87.5786 23.8284 86.8284C24.5786 86.0783 25 85.0609 25 84V76C25 57.9653 32.1643 40.6692 44.9167 27.9167C57.6692 15.1643 74.9653 8 93 8C111.035 8 128.331 15.1643 141.083 27.9167C153.836 40.6692 161 57.9653 161 76V84C161 85.0609 161.421 86.0783 162.172 86.8284C162.922 87.5786 163.939 88 165 88C168.183 88 171.235 89.2643 173.485 91.5147C175.736 93.7652 177 96.8174 177 100C177 103.183 175.736 106.235 173.485 108.485C171.235 110.736 168.183 112 165 112Z" fill="#6A687A"/>
</svg>